<?xml version="1.0" encoding="UTF-8"?>
<svg xmlns="http://www.w3.org/2000/svg" id="Outline" viewBox="0 0 512 512" width="512" height="512"><path d="M394.816,236.326C386.6,214.469,373.563,209.363,360,208.275V136.262c.306-4.957,2.673-56.872-29.248-91.155C312.844,25.875,287.83,16.083,256.4,16c-4.509-.416-36.7-2.575-59.2,17.561C183.133,46.154,176,64.47,176,88c0,1.417.305,33.5,24.172,52.182A56.1,56.1,0,0,0,232,186.586v15.435C223.85,204.25,207.79,208,192,208c-10.581,0-25.072,0-36.912,11.185C142.244,231.318,136,253.828,136,288v.61a63.938,63.938,0,0,0,.141,110.861A39.752,39.752,0,0,0,158.111,432l64.123,32.061a30.431,30.431,0,0,0,30.26,33.227A30.405,30.405,0,0,0,263.8,495.1l59.168-23.667a7.991,7.991,0,0,0,1.467-.772c18.032-12.021,52.531-44.887,71.49-63.408a40.209,40.209,0,0,0,12.035-28.843C407.541,302.192,403.609,259.7,394.816,236.326ZM272.784,408.957a23.964,23.964,0,0,0-6.063,7.46l-53.789-26.895A63.8,63.8,0,0,0,232,344c0-1.865-.1-3.708-.255-5.533A257.208,257.208,0,0,1,268,336c29.661,0,56.383,4.546,76,12.849v23.838l-34.629,34.628-16.665-3.333A23.9,23.9,0,0,0,272.784,408.957ZM216,344a47.888,47.888,0,0,1-16.147,35.866C187.728,373.912,168,361.528,168,344c0-17.147-4.2-34.1-8.636-47.207A47.951,47.951,0,0,1,216,344ZM192,88c0-18.74,5.315-33.022,15.8-42.448,18.318-16.474,47.049-13.632,47.32-13.6A8.137,8.137,0,0,0,256,32c26.958,0,48.148,8.056,62.979,23.942,28.092,30.092,25.074,79.007,25.042,79.488q-.021.285-.021.57V331.68c-13.825-5.031-30.148-8.528-48-10.307V136a8,8,0,0,0-5.029-7.428c-35.975-14.39-51.235-58.667-51.382-59.1a8,8,0,0,0-15.08-.279l-19.942,53.18C192.29,108.161,192,88.216,192,88Zm24.034,49.359,16.657-44.418c8.371,15.483,23.5,36.835,47.309,48.275V175.2a40.271,40.271,0,0,1-8,.805H256A40.041,40.041,0,0,1,216.034,137.359Zm-49.959,93.456C173.29,224,182.8,224,192,224c25.011,0,49.5-8.067,50.53-8.41A8,8,0,0,0,248,208V191.419a56.14,56.14,0,0,0,8,.581h16a56.349,56.349,0,0,0,8-.579V320.249q-5.923-.241-12-.249c-5.3,0-10.5.151-15.614.422C261.123,309.95,264,296.551,264,288a7.984,7.984,0,0,0-7.964-7.981H256a8.016,8.016,0,0,0-8,7.946,42.472,42.472,0,0,1-3.632,15.363c-3.676,8.044-9.47,13.082-17.614,15.323A64.392,64.392,0,0,0,200,288.61V272a8,8,0,0,0-16,0v10.025a64.211,64.211,0,0,0-31.927-.018C152.692,256.229,157.393,239.018,166.075,230.815ZM120,344a48.023,48.023,0,0,1,24.316-41.725C147.966,313.2,152,328.734,152,344c0,21.327,16.364,36.13,31.745,45.334A47.975,47.975,0,0,1,120,344Zm45.267,73.689a23.9,23.9,0,0,1-10.96-11.179,63.833,63.833,0,0,0,44.248-6.288L258.112,430l-19.224,9.612A30.09,30.09,0,0,0,227.9,449ZM384.747,395.8c-14.755,14.414-50.678,48.932-68.511,61.087l-58.375,23.349a14.436,14.436,0,0,1-11.818-26.316l29.535-14.768A8,8,0,0,0,280,432v-4.483a7.993,7.993,0,0,1,9.569-7.845l20.862,4.173a8.007,8.007,0,0,0,7.226-2.188l40-40A8,8,0,0,0,360,376V224.273c8.827.849,14.792,4.264,19.841,17.686,7.978,21.21,11.717,63.318,12.122,136.535A24.125,24.125,0,0,1,384.747,395.8Z"/></svg>
