<svg height="488pt" viewBox="3 6 488 488.00104" width="488pt" xmlns="http://www.w3.org/2000/svg"><g stroke="#3762cc" stroke-linecap="round" stroke-linejoin="round" stroke-miterlimit="10" stroke-width="4" transform="matrix(2 0 0 2 -20.45948 -12)"><path d="m244.938724 53.066406v-39.066406c0-3.314453-2.6875-6-6-6h-82.5c-3.314453 0-6 2.685547-6 6v18.558594c0 9.394531-7.617187 17.009765-17.009765 17.009765h-23.341797c-44.884766 0-81.269531 36.386719-81.269531 81.271485v96.154297c0 3.314453 2.685547 6 6 6h50.695312c.63086 3.597656 1.564453 7.142578 2.796875 10.595703l.150391.427734c.853515 2.388672 3.115234 3.982422 5.652344 3.982422h144.886718c3.314453 0 6-2.685547 6-6v-188.933594zm0 0" fill="#f9cfcf"/><path d="m216.587162 185.896484h.03125c.40625 21.5625 11.585937 40.486328 28.382812 51.613282" fill="none"/><path d="m84.526615 110.029297v25.25c0 6.126953-1.496094 12.201172-4.591797 17.488281-5.832031 9.960938-9.027344 21.652344-8.601562 34.123047 1.164062 34.167969 29.771484 61.466797 63.957031 61.105469 34.248047-.359375 61.958984-27.917969 62.603515-62.097656h.03125" fill="none"/></g><path d="m248.761719 276.523438c0 10.4375-8.460938 18.898437-18.898438 18.898437s-18.902343-8.460937-18.902343-18.898437c0-10.441407 8.464843-18.902344 18.902343-18.902344s18.898438 8.460937 18.898438 18.902344zm0 0" fill="#eaa97d"/><path d="m208.898438 307.5625c0 12.527344-10.15625 22.679688-22.683594 22.679688-12.523438 0-22.679688-10.152344-22.679688-22.679688 0-12.523438 10.15625-22.679688 22.679688-22.679688 12.527344 0 22.683594 10.15625 22.683594 22.679688zm0 0" fill="#eaa97d"/><path d="m189.921875 359.792969c0 13.570312-11 24.570312-24.570313 24.570312-13.570312 0-24.570312-11-24.570312-24.570312 0-13.570313 11-24.570313 24.570312-24.570313 13.570313 0 24.570313 11 24.570313 24.570313zm0 0" fill="#eaa97d"/><path d="m85.51099 232.994141-1.699219-10.644532" style="fill:none;stroke-width:4;stroke-linecap:round;stroke-linejoin:round;stroke:#3762cc;stroke-miterlimit:10" transform="matrix(2 0 0 2 -20.45948 -12)"/><path d="m28.231693 119.179688h58.384766l31.83789 12.197265c1.615235.617188 3.201172-.96875 2.582032-2.583984l-12.806641-33.431641v-56.18164c0-8.835938-7.162109-16-16-16h-64c-8.835937 0-16 7.164062-16 16v64c.001953 8.83789 7.164063 16 16.001953 16zm0 0" style="fill:#a4c9ff;stroke-width:4;stroke-linecap:round;stroke-linejoin:round;stroke:#3762cc;stroke-miterlimit:10" transform="matrix(2 0 0 2 -20.45948 -12)"/><path d="m35.335938 204.027344c-6.617188 0-12-5.386719-12-12v-128c0-6.617188 5.382812-12 12-12h128c6.617187 0 12 5.382812 12 12v128c0 6.613281-5.382813 12-12 12zm0 0" fill="#e0ebfc"/><path d="m161.386719 128.027344c0 6.261718-8.796875 11.058594-10.628907 16.707031-1.902343 5.855469 2.328126 14.894531-1.21875 19.769531-3.585937 4.921875-13.511718 3.671875-18.433593 7.253906-4.871094 3.546876-6.734375 13.394532-12.589844 15.292969-5.648437 1.835938-12.914063-4.976562-19.179687-4.976562-6.261719 0-13.527344 6.8125-19.179688 4.976562-5.855469-1.902343-7.714844-11.746093-12.589844-15.292969-4.925781-3.585937-14.851562-2.335937-18.433594-7.257812-3.546874-4.875.6875-13.910156-1.214843-19.769531-1.835938-5.648438-10.632813-10.445313-10.632813-16.707031 0-6.261719 8.796875-11.058594 10.632813-16.707032 1.902343-5.855468-2.332031-14.894531 1.214843-19.769531 3.585938-4.921875 13.511719-3.671875 18.433594-7.253906 4.875-3.550781 6.734375-13.394531 12.589844-15.296875 5.648438-1.832032 12.917969 4.980468 19.179688 4.980468 6.261718 0 13.527343-6.8125 19.179687-4.980468 5.855469 1.902344 7.71875 11.75 12.589844 15.296875 4.925781 3.585937 14.851562 2.335937 18.433593 7.257812 3.546876 4.875-.683593 13.910157 1.21875 19.765625 1.832032 5.652344 10.628907 10.449219 10.628907 16.710938zm0 0" fill="#f9a7a7"/><path d="m120.992188 94.246094c0 6.957031-5.644532 12.601562-12.601563 12.601562s-12.601563-5.644531-12.601563-12.601562c0-6.957032 5.644532-12.601563 12.601563-12.601563s12.601563 5.644531 12.601563 12.601563zm0 0" fill="#6bdddd"/><path d="m88.832031 110.582031c0 9.039063-7.328125 16.363281-16.367187 16.363281-9.035156 0-16.363282-7.324218-16.363282-16.363281 0-9.039062 7.328126-16.363281 16.363282-16.363281 9.039062 0 16.367187 7.324219 16.367187 16.363281zm0 0" fill="#a4c9ff"/><path d="m119.082031 132.21875c0 7.929688-6.429687 14.359375-14.363281 14.359375-7.929688 0-14.359375-6.429687-14.359375-14.359375s6.429687-14.359375 14.359375-14.359375c7.933594 0 14.363281 6.429687 14.363281 14.359375zm0 0" fill="#a4c9ff"/><path d="m82.59375 149.699219c0 6.972656-5.652344 12.628906-12.628906 12.628906-6.976563 0-12.628906-5.65625-12.628906-12.628906 0-6.976563 5.652343-12.632813 12.628906-12.632813 6.976562 0 12.628906 5.65625 12.628906 12.632813zm0 0" fill="#6bdddd"/><path d="m144.78125 114.492188c0 5.964843-4.835938 10.800781-10.800781 10.800781-5.964844 0-10.800781-4.835938-10.800781-10.800781 0-5.964844 4.835937-10.800782 10.800781-10.800782 5.964843 0 10.800781 4.835938 10.800781 10.800782zm0 0" fill="#a4c9ff"/><path d="m104.71875 166.519531c0 4.949219-4.007812 8.960938-8.957031 8.960938s-8.960938-4.011719-8.960938-8.960938 4.011719-8.960937 8.960938-8.960937 8.957031 4.011718 8.957031 8.960937zm0 0" fill="#a4c9ff"/><path d="m143.683594 151.113281c0 6.195313-5.023438 11.214844-11.214844 11.214844-6.195312 0-11.214844-5.019531-11.214844-11.214844 0-6.191406 5.019532-11.214843 11.214844-11.214843 6.191406 0 11.214844 5.023437 11.214844 11.214843zm0 0" fill="#6bdddd"/><path d="m282.601562 361.984375c0 18.464844-14.964843 33.429687-33.429687 33.429687-18.460937 0-33.429687-14.964843-33.429687-33.429687 0-18.460937 14.96875-33.429687 33.429687-33.429687 18.464844 0 33.429687 14.96875 33.429687 33.429687zm0 0" fill="#f9a7a7"/><path d="m264.53125 361.984375c0 8.484375-6.875 15.359375-15.359375 15.359375-8.480469 0-15.355469-6.875-15.355469-15.359375 0-8.480469 6.875-15.355469 15.355469-15.355469 8.484375 0 15.359375 6.875 15.359375 15.355469zm0 0" fill="#f28181"/></svg>