<svg id="Flat" height="512" viewBox="0 0 512 512" width="512" xmlns="http://www.w3.org/2000/svg"><path d="m184 384 96 48-40 32-78.311-39.155a32 32 0 0 1 -17.689-28.622v-28.223h40z" fill="#ebc1a0"/><path d="m352 216v-48h-112v40s-24 8-48 8-48-8-48 144h208v16l-40 40-20.862-4.172a16 16 0 0 0 -19.138 15.689v4.483l-34.832 17.416a16 16 0 0 0 -7.7 20.253l4.59 11.475a16 16 0 0 0 20.8 8.914l65.142-26.058c17.809-11.873 53.238-45.77 70.331-62.469a32.011 32.011 0 0 0 9.632-23.09c-.863-154.877-16.847-162.441-47.963-162.441z" fill="#f0c6a4"/><path d="m352 216v-48h-112v40s-24 8-48 8-48-8-48 144h208v16l-40 40-20.862-4.172a16 16 0 0 0 -19.138 15.689v4.483l-34.832 17.416a16 16 0 0 0 -7.7 20.253l4.59 11.475a16 16 0 0 0 20.8 8.914l65.142-26.058c17.809-11.873 53.238-45.77 70.331-62.469a32.011 32.011 0 0 0 9.632-23.09c-.863-154.877-16.847-162.441-47.963-162.441z" fill="#f0c6a4"/><path d="m216 336a8 8 0 0 1 0-16c13.311 0 22.348-4.956 27.628-15.151a42.173 42.173 0 0 0 4.372-16.884 8.016 8.016 0 0 1 8-7.946h.036a7.984 7.984 0 0 1 7.964 7.981 58.139 58.139 0 0 1 -5.845 23.578c-5.57 11.141-17.406 24.422-42.155 24.422z" fill="#e0b999"/><path d="m192 312a8 8 0 0 1 -8-8v-32a8 8 0 0 1 16 0v32a8 8 0 0 1 -8 8z" fill="#e0b999"/><path d="m208 72h112a0 0 0 0 1 0 0v64a48 48 0 0 1 -48 48h-16a48 48 0 0 1 -48-48v-64a0 0 0 0 1 0 0z" fill="#f7cca9"/><circle cx="168" cy="344" fill="#f7cca9" r="56"/><path d="m201.02 389.23a56.006 56.006 0 1 1 -52.14-97.88c4.71 12.14 11.12 32.39 11.12 52.65 0 24.31 27.71 39.39 41.02 45.23z" fill="#d49073"/><path d="m352 136v207.66c-16.77-8.07-39.01-13.19-64-14.97v-192.69c-40-16-56-64-56-64l-24 64c-24-16-24-48-24-48 0-72 72-64 72-64 104 0 96 112 96 112z" fill="#d49073"/><path d="m352 343.66v32.34l-40 40-20.86-4.17a16 16 0 0 0 -19.14 15.69v.48l-73.74-36.87a56.1 56.1 0 0 0 24.41-59.32 257.335 257.335 0 0 1 45.33-3.81c33.05 0 62.87 5.5 84 15.66z" fill="#e9eef2"/></svg>