<svg height="490pt" viewBox="-1 0 490 490.498" width="490pt" xmlns="http://www.w3.org/2000/svg"><path d="m84.393078 224 2.566406 18.810547c.404297 2.972656 2.945313 5.189453 5.945313 5.189453h149.095703c3.314453 0 6-2.685547 6-6v-195.595703c0-1.796875-.826172-3.472656-2.197266-4.632813-3.3125-2.804687-5.419922-6.986328-5.419922-11.667968v-16.103516c0-3.314453-2.685546-6-6-6h-89.490234c-3.3125 0-6 2.685547-6 6v16.103516c0 8.455078-6.853516 15.308593-15.308594 15.308593l-45.546875-36.113281c-1.060546-.841797-2.375-1.298828-3.728515-1.298828h-60.308594c-3.314453 0-6 2.685547-6 6v21.554688c0 .822265.167969 1.634765.496094 2.386718l71.097656 163.841797.013672.134766zm0 0" style="fill:#f9cfcf;stroke-width:4;stroke-linecap:round;stroke-linejoin:round;stroke:#3762cc;stroke-miterlimit:10" transform="matrix(2 0 0 2 -11.751 -12)"/><path d="m147.398438 187.652344v45.449218c0 11.03125-2.695313 21.960938-8.265626 31.480469-10.496093 17.929688-16.246093 38.972657-15.480468 61.421875 2.09375 61.5 53.589844 110.636719 115.121094 109.988282 61.648437-.648438 111.53125-50.253907 112.691406-111.777344h.054687v-136.5625zm0 0" fill="#f9cfcf"/><path d="m79.574719 99.826172v22.724609c0 5.515625-1.347656 10.980469-4.132813 15.740235-5.248047 8.964843-8.123047 19.486328-7.740234 30.710937 1.046875 30.75 26.794922 55.318359 57.560547 54.994141 30.824218-.324219 55.765625-25.126953 56.345703-55.888672h.027344" style="fill:none;stroke-width:4;stroke-linecap:round;stroke-linejoin:round;stroke:#3762cc;stroke-miterlimit:10" transform="matrix(2 0 0 2 -11.751 -12)"/><path d="m248.029797 223.279297c-27.626953-3.576172-49.03711-26.943359-49.574219-55.419922h-.027344" style="fill:none;stroke-width:4;stroke-linecap:round;stroke-linejoin:round;stroke:#3762cc;stroke-miterlimit:10" transform="matrix(2 0 0 2 -11.751 -12)"/><path d="m311.75 486.503906c-1.203125 0-2.398438-.183594-3.558594-.542968-6.3125-1.957032-9.863281-8.695313-7.902344-15.015626l2.027344-6.53125c-22.261718 12.839844-47.433594 19.722657-73.433594 19.996094l-1.527343.007813c-39.117188 0-76.230469-15.03125-104.535157-42.324219-28.351562-27.339844-44.699218-63.9375-46.03125-103.039062-.96875-28.554688 6.113282-56.621094 20.484376-81.167969 2.148437-3.664063 6.121093-5.9375 10.367187-5.9375 2.121094 0 4.214844.570312 6.054687 1.648437 5.707032 3.34375 7.632813 10.707032 4.292969 16.417969-12.078125 20.621094-18.027343 44.214844-17.210937 68.222656 1.121094 32.835938 14.863281 63.585938 38.707031 86.578125 23.804687 22.960938 54.992187 35.605469 87.8125 35.605469l1.398437-.007813c20.394532-.214843 40.144532-5.257812 57.878907-14.691406l-4.855469.191406-.488281.011719c-6.457031 0-11.71875-5.066406-11.972657-11.53125-.125-3.203125 1.003907-6.261719 3.179688-8.617187 2.175781-2.355469 5.136719-3.71875 8.339844-3.84375l43.925781-1.722656c.289063 0 .570313.015624.855469.035156l.195312.003906.382813.03125c.585937.0625 1.199219.179688 1.8125.34375l.105469.015625.378906.113281c.210937.0625.414062.144532.617187.238282.378907.144531.746094.300781 1.105469.476562.285156.140625.558594.285156.828125.441406.359375.214844.699219.453125 1.027344.699219.335937.25.65625.507813.960937.785156.371094.339844.726563.703125 1.058594 1.09375.167969.203125.304688.382813.4375.566407.316406.4375.5625.8125.792969 1.207031.136719.25.25.457031.359375.671875.066406.109375.164062.300781.253906.507812.105469.246094.195312.5.277344.757813l-3.730469 1.449219 3.796875-1.25c.0625.167968.121094.339843.171875.515624.203125.710938.335937 1.378907.410156 2.046876l.019531.210937.003907.226563c.039062.589843.035156 1.15625-.007813 1.714843-.011718.148438-.035156.335938-.058594.519531-.078124.601563-.175781 1.105469-.296874 1.589844-.039063.1875-.082032.375-.140626.5625l-13.105468 42.269532c-1.570313 5.050781-6.175782 8.449218-11.464844 8.449218zm0 0" fill="#6bdddd"/><path d="m173.984875 220.197266c.029297.083984.060547.169922.085937.257812.101563.355469.167969.689453.203125 1.023438l.011719.105468v.113282c.019531.294922.017578.578125-.003906.857422-.003906.074218-.015625.167968-.027344.259765-.039062.300781-.08789.552735-.15039.794922-.017579.09375-.039063.1875-.070313.28125l-6.552734 21.134766c-.78125 2.52539-3.085938 4.222656-5.728516 4.222656-.603516 0-1.201172-.089844-1.779297-.269531-3.158203-.980469-4.93164-4.347657-3.953125-7.507813l1.013672-3.265625c-11.130859 6.419922-23.714844 9.861328-36.714844 9.998047l-.763671.003906c-19.558594 0-38.115235-7.515625-52.267579-21.162109-14.175781-13.671875-22.351562-31.96875-23.017578-51.519531-.484375-14.277344 3.058594-28.310547 10.244141-40.583985 1.074219-1.832031 3.060547-2.96875 5.181641-2.96875 1.0625 0 2.107421.285156 3.027343.824219 2.855469 1.671875 3.81836 5.353516 2.146485 8.208984-6.03711 10.310547-9.013672 22.107422-8.603516 34.111329.558594 16.417968 7.431641 31.792968 19.351563 43.289062 11.902343 11.480469 27.496093 17.800781 43.90625 17.800781l.699218-.001953c10.199219-.107422 20.074219-2.628906 28.941406-7.345703l-2.427734.095703-.244141.00586c-3.230468 0-5.859375-2.533204-5.986328-5.765626-.0625-1.601562.5-3.130859 1.587891-4.308593 1.087891-1.177735 2.570312-1.859375 4.171875-1.921875l21.962891-.861328c.142578 0 .283203.007812.425781.017578l.099609.001953.191406.015625c.292969.03125.597657.089844.904297.171875l.054688.007812.1875.054688c.105469.033203.208984.074219.310547.121094.189453.072265.373047.15039.550781.238281.142578.070312.28125.140625.414062.220703.181641.107422.34961.226563.515625.349609.167969.125.328125.253907.478516.392578.185547.169922.365234.351563.53125.546876.083984.101562.150391.191406.216797.283203.160156.21875.283203.40625.396484.603515.070313.125.126953.228516.179688.335938.033203.054687.083984.15039.128906.253906.052734.123047.097656.25.138672.378906zm0 0" style="fill:none;stroke-width:4;stroke-linecap:round;stroke-linejoin:round;stroke:#3762cc;stroke-miterlimit:10" transform="matrix(2 0 0 2 -11.751 -12)"/><path d="m261.800781 342.113281c0 14.683594-11.90625 26.589844-26.59375 26.589844s-26.59375-11.90625-26.59375-26.589844c0-14.6875 11.90625-26.59375 26.59375-26.59375s26.59375 11.90625 26.59375 26.59375zm0 0" fill="#f9a7a7"/><path d="m246.933594 340.855469c-.695313-6.472657-6.507813-11.160157-12.980469-10.464844s-11.15625 6.507813-10.460937 12.980469c.695312 6.472656 6.503906 11.15625 12.976562 10.460937 6.472656-.691406 11.160156-6.503906 10.464844-12.976562zm0 0" fill="#f28181"/><path d="m484.25 274.164062-85.441406-37.007812c-.027344-.007812-.042969-.03125-.050782-.058594-2.292968-8.628906-7.128906-16.214844-13.652343-21.921875l-49.507813-44.152343c-.011718-.011719-.027344-.015626-.042968-.019532l-101.367188-20.222656c-3.382812-.675781-6.675781 1.703125-7.855469 5.675781-3.328125 11.191407 1.5 23.5625 10.660157 27.3125l49.488281 20.261719c.09375.035156.066406.175781-.035157.175781h-128.121093c-9.3125 0-17.484375 7.023438-18.042969 16.320313-.605469 10.09375 7.398438 18.46875 17.363281 18.46875h-11.320312c-9.3125 0-17.484375 7.027344-18.042969 16.320312-.609375 10.09375 7.398438 18.472656 17.363281 18.472656h8c-9.964843 0-17.96875 8.375-17.363281 18.472657.558594 9.292969 8.730469 16.316406 18.042969 16.316406h22.3125c-9.050781 0-16.386719 7.339844-16.386719 16.390625v1.921875c0 9.101563 7.378906 16.480469 16.480469 16.480469h179.214843c4.382813 0 8.613282-.648438 12.613282-1.832032.023437-.007812.050781-.003906.074218.011719l115.472657 76.347657c.0625.042968.144531-.003907.144531-.078126l.058594-143.578124c0-.027344-.023438-.0625-.058594-.078126zm0 0" fill="#f9cfcf"/><g style="stroke-width:4;stroke-linecap:round;stroke-linejoin:round;stroke:#3762cc;stroke-miterlimit:10;fill:none" transform="matrix(2 0 0 2 -11.751 -12)"><path d="m123.332531 142.896484h-44.634765c-4.804688 0-8.697266-3.894531-8.697266-8.699218 0-4.802735 3.892578-8.697266 8.697266-8.697266h44.634765"/><path d="m127.352063 160.292969h-44.634766c-4.804688 0-8.699219-3.894531-8.699219-8.699219s3.894531-8.697266 8.699219-8.697266h44.634766"/><path d="m248.0005 143.082031-42.720703-18.503906c-.013672-.003906-.021485-.015625-.025391-.029297-1.146484-4.314453-3.564453-8.107422-6.826172-10.960937l-24.753906-22.076172c-.005859-.00586-.013672-.007813-.021484-.009766l-50.683594-10.111328c-1.691406-.337891-3.337891.851563-3.927734 2.837891-1.664063 5.595703.75 11.78125 5.330078 13.65625l24.74414 10.130859c.046875.017578.033203.087891-.017578.087891h-64.060547c-4.65625 0-8.742187 3.511718-9.021484 8.160156-.302734 5.046875 3.699219 9.234375 8.681641 9.234375h-5.660157c-4.65625 0-8.742187 3.513672-9.021484 8.160156-.304687 5.046875 3.699219 9.236328 8.681641 9.236328h4c-4.982422 0-8.984375 4.1875-8.681641 9.236328.279297 4.646485 4.365234 8.158203 9.021484 8.158203h11.15625c-4.52539 0-8.193359 3.669922-8.193359 8.195313v.960937c0 4.550782 3.689453 8.240235 8.240234 8.240235h89.607422c2.191406 0 4.306641-.324219 6.306641-.916016.011719-.003906.02539-.001953.037109.00586l57.736328 38.173828c.03125.021484.072266-.001953.072266-.039063l.029297-71.789062c0-.013672-.011719-.03125-.029297-.039063zm0 0"/></g></svg>