<?xml version="1.0" encoding="iso-8859-1"?>
<!-- Generator: Adobe Illustrator 19.0.0, SVG Export Plug-In . SVG Version: 6.00 Build 0)  -->
<svg version="1.1" id="Capa_1" xmlns="http://www.w3.org/2000/svg" xmlns:xlink="http://www.w3.org/1999/xlink" x="0px" y="0px"
	 viewBox="0 0 512 512" style="enable-background:new 0 0 512 512;" xml:space="preserve">
<g>
	<g>
		<path d="M487.473,436.882c-0.667-34.015-18.398-63.868-33.154-82.922c-8.422-10.873-16.631-19.275-22.037-24.409
			c-11.87-11.274-13.762-11.274-16.898-11.274c-3.265,0-4.903,0-16.744,11.284c-5.423,5.167-13.646,13.591-22.031,24.384
			c-14.825,19.084-32.639,48.961-33.311,82.834c-0.021,0.699-0.032,1.399-0.032,2.104c0,39.766,32.353,72.119,72.119,72.119
			s72.119-32.352,72.119-72.119C487.503,438.182,487.492,437.483,487.473,436.882z M415.385,491.041
			c-28.76,0-52.158-23.398-52.158-52.158c0-0.51,0.01-1.017,0.026-1.616c0.546-27.549,15.195-52.626,27.386-68.813
			c9.397-12.475,18.962-21.989,24.813-27.296c5.831,5.252,15.487,14.824,24.996,27.533c12.049,16.108,26.528,41.081,27.069,68.678
			c0.015,0.503,0.024,1.006,0.024,1.513C467.542,467.643,444.145,491.041,415.385,491.041z"/>
	</g>
</g>
<g>
	<g>
		<path d="M188.704,91.171c-8.404-7.304-19.182-16.348-30.594-25.923c-26.114-21.91-55.691-46.726-66.837-59.076l-1.854-2.358
			c-3.405-4.334-9.68-5.085-14.015-1.678c-4.333,3.406-5.084,9.681-1.678,14.015l2.057,2.616c0.132,0.167,0.268,0.33,0.409,0.488
			c11.935,13.333,42.297,38.808,69.087,61.285c11.344,9.517,22.059,18.507,30.33,25.698c1.889,1.642,4.222,2.447,6.543,2.447
			c2.789,0,5.563-1.163,7.536-3.432C193.305,101.092,192.864,94.788,188.704,91.171z"/>
	</g>
</g>
<g>
	<g>
		<path d="M215.241,110.143c-0.105-0.046-0.276-0.117-0.385-0.159c-5.133-2.01-10.923,0.525-12.931,5.657
			c-1.986,5.074,0.466,10.79,5.481,12.861c1.266,0.534,2.58,0.786,3.873,0.786c3.862,0,7.539-2.256,9.168-6.026
			C222.633,118.202,220.303,112.328,215.241,110.143z"/>
	</g>
</g>
<g>
	<g>
		<path d="M369.142,265.027c-1.726-17.018-16.18-29.532-32.194-27.914c-2.178,0.123-7.377-2.072-8.584-3.613
			c-29.423-42.252-76.495-90.185-78.487-92.205c-3.867-3.927-10.187-3.974-14.113-0.107c-3.927,3.867-3.975,10.187-0.108,14.114
			c0.476,0.483,47.885,48.763,76.328,89.605c5.672,8.146,18.762,12.888,26.957,12.066c5.088-0.528,9.726,4,10.341,10.067
			s-3.023,11.423-8.11,11.938l-3.829,0.388c-9.831,0.997-17.645,8.644-18.581,18.185c-5.998,61.172-51.947,132.608-161.705,132.608
			c-5.511,0-9.98,4.468-9.98,9.981v61.879c0,5.512,4.469,9.98,9.98,9.98s9.981-4.468,9.981-9.98v-52.092
			c50.196-1.961,92.741-18.814,123.513-49.038c27.194-26.711,44.263-62.685,48.07-101.304c0.111-0.125,0.414-0.325,0.736-0.358
			l3.829-0.388C359.221,297.212,370.865,282.045,369.142,265.027z"/>
	</g>
</g>
<g>
	<g>
		<path d="M98.477,372.735c-21.758-13.283-38.533-33.736-47.236-57.593c-1.89-5.178-7.617-7.846-12.796-5.956
			c-5.178,1.889-7.845,7.618-5.956,12.797c10.246,28.087,29.987,52.161,55.588,67.789c1.623,0.991,3.418,1.463,5.19,1.463
			c3.363,0,6.647-1.701,8.528-4.782C104.668,381.749,103.182,375.607,98.477,372.735z"/>
	</g>
</g>
<g>
	<g>
		<path d="M44.457,276.553c0-5.512-4.469-9.98-9.98-9.98c-5.511,0-9.981,4.468-9.981,9.98l0.005,1.153
			c0.045,5.484,4.505,9.899,9.979,9.899c0.028,0.001,0.057,0.001,0.084,0c5.511-0.045,9.944-4.55,9.899-10.062L44.457,276.553z"/>
	</g>
</g>
<g>
</g>
<g>
</g>
<g>
</g>
<g>
</g>
<g>
</g>
<g>
</g>
<g>
</g>
<g>
</g>
<g>
</g>
<g>
</g>
<g>
</g>
<g>
</g>
<g>
</g>
<g>
</g>
<g>
</g>
</svg>
