<svg height="512pt" viewBox="0 0 512 512" width="512pt" xmlns="http://www.w3.org/2000/svg"><path d="m512 256c0 141.386719-114.613281 256-256 256-21.691406 0-42.746094-2.695312-62.851562-7.785156-.992188-.25-1.972657-.5-2.957032-.761719-109.492187-29.039063-190.191406-128.816406-190.191406-247.453125 0-122.816406 86.496094-225.449219 201.894531-250.261719 6.5625-1.421875 13.230469-2.582031 19.980469-3.480469 11.15625-1.496093 22.546875-2.257812 34.125-2.257812 141.386719 0 256 114.613281 256 256zm0 0" fill="#ffd62c"/><path d="m376.570312 226.941406c0 19.550782-2.652343 36.9375-7.53125 52.328125-5.101562 16.089844-12.632812 30-22.109374 41.878907-.011719.011718-.011719.011718-.023438.023437-5.546875 6.957031-11.753906 13.214844-18.535156 18.839844h-.011719c-30.1875 25.003906-71.648437 37.070312-115.742187 39.410156-9.917969.523437-18.191407 7.765625-19.9375 17.535156-4.261719 23.769531-9.59375 68.273438.46875 107.257813-.992188-.25-1.972657-.5-2.953126-.761719-109.496093-29.039063-190.195312-128.816406-190.195312-247.453125 0-79.160156 35.933594-149.933594 92.390625-196.890625 31.128906-25.894531 68.484375-44.542969 109.503906-53.375 6.5625-1.421875 13.230469-2.578125 19.980469-3.476563 35.808594 53.445313 113.046875 108.039063 142.730469 173.179688 7.503906 16.449219 11.964843 33.574219 11.964843 51.503906zm0 0" fill="#f6ba97"/><path d="m376.570312 226.941406c0 19.554688-2.648437 36.941406-7.527343 52.328125-25.640625-3.652343-45.335938-25.6875-45.335938-52.328125 0-25.082031 17.453125-46.085937 40.898438-51.503906 7.507812 16.453125 11.964843 33.570312 11.964843 51.503906zm0 0" fill="#d38262"/><path d="m380.5625 209.667969h-5.226562c-5.4375 0-9.851563 4.410156-9.851563 9.851562v15.671875c0 5.441406 4.410156 9.851563 9.851563 9.851563h5.226562c9.769531 0 17.6875-7.917969 17.6875-17.6875s-7.917969-17.6875-17.6875-17.6875zm0 0" fill="#d38262"/><path d="m357.664062 354.378906c0 1.039063.015626 2.074219.054688 3.105469 1.585938 45.5625 70.367188 45.5625 71.953125 0 .039063-1.03125.054687-2.066406.054687-3.105469 0-29.105468-14.195312-54.878906-36.03125-70.820312-21.835937 15.9375-36.03125 41.714844-36.03125 70.820312zm0 0" fill="#fcf8f2"/><path d="m393.648438 391.65625c-17.601563 0-35.191407-11.390625-35.984376-34.171875-.035156-1.035156-.050781-2.066406-.050781-3.109375 0-29.101562 14.199219-54.875 36.027344-70.816406-8.429687 15.941406-13.902344 41.714844-13.902344 70.816406 0 1.042969 0 2.074219.015625 3.109375.308594 22.78125 7.097656 34.171875 13.894532 34.171875zm0 0" fill="#eae0d3"/><path d="m421.515625 348.378906c0-8.144531-3.113281-14.746094-6.953125-14.746094-3.84375 0-6.957031 6.601563-6.957031 14.746094 0 8.144532 3.113281 14.746094 6.957031 14.746094 3.839844 0 6.953125-6.601562 6.953125-14.746094zm0 0" fill="#fff"/><path d="m328.359375 340.011719c-30.1875 25.003906-71.648437 37.070312-115.742187 39.410156-9.917969.523437-18.191407 7.765625-19.9375 17.535156-4.265626 23.769531-9.59375 68.273438.46875 107.257813-.992188-.25-1.972657-.5-2.957032-.761719-109.492187-29.039063-190.191406-128.816406-190.191406-247.453125 0-79.160156 35.933594-149.933594 92.390625-196.890625-14.429687 68.042969 3.144531 312.8125 235.96875 280.902344zm0 0" fill="#eaa27f"/></svg>