<svg height="512pt" viewBox="-71 0 512 512.00102" width="512pt" xmlns="http://www.w3.org/2000/svg"><path d="m62.609375 88.546875-3.652344 256.265625 244.546875 3.488281 3.652344-256.269531c.753906-52.816406-44.015625-94.875-96.679688-90.832031l-17.148437 1.316406c-4.792969.367187-9.609375.296875-14.386719-.207031l-17.101562-1.804688c-52.53125-5.539062-98.480469 35.226563-99.230469 88.042969zm0 0" fill="#fdbd37"/><path d="m210.476562 1.199219-17.148437 1.316406c-3.140625.238281-6.289063.273437-9.433594.140625 41.3125 8.230469 72.808594 45.003906 72.175781 89.375l-3.640624 255.539062 51.074218.730469 3.652344-256.269531c.753906-52.816406-44.011719-94.875-96.679688-90.832031zm0 0" fill="#fa9a39"/><path d="m331.71875 325.714844c-28.554688-14.496094-58.691406-24.574219-89.453125-30.246094-11.90625-2.195312-20.53125-12.601562-20.53125-24.707031v-48.039063h-78.519531v48.039063c0 12.109375-8.625 22.515625-20.535156 24.707031-30.757813 5.671875-60.894532 15.75-89.453126 30.246094-20.382812 10.347656-33.226562 31.265625-33.226562 54.128906l5.882812 125.113281c.1875 3.941407 3.4375 7.042969 7.382813 7.042969h350.148437c4.21875 0 7.582032-3.523438 7.382813-7.738281l-5.847656-124.417969c-.003907-22.859375-12.84375-43.78125-33.230469-54.128906zm0 0" fill="#fed6a6"/><path d="m33.226562 325.714844c-20.382812 10.347656-33.226562 31.269531-33.226562 54.128906l5.882812 125.113281c.183594 3.941407 3.4375 7.042969 7.382813 7.042969h200.042969l-90.628906-216.527344c-30.757813 5.667969-60.898438 15.746094-89.453126 30.242188zm0 0" fill="#ff94a6"/><path d="m311.234375 394.585938c-7.359375-49.617188-52.375-81.34375-71.957031-99.882813-10.328125-3.253906-17.542969-12.878906-17.542969-23.941406v-10.148438c-14.792969 7.421875-29.472656 11.046875-39.4375 11.117188-3.179687-.113281-6.839844-.609375-10.8125-1.476563v35.457032c0 12.109374 8.628906 22.515624 20.535156 24.710937 30.757813 5.667969 60.898438 15.746094 89.453125 30.242187 14.140625 7.179688 24.648438 19.449219 29.761719 33.921876zm0 0" fill="#efc79c"/><path d="m342.355469 332.59375c-4.898438-3.953125-10.375-6.8125-16.007813-9.546875-26.953125-13.070313-55.246094-22.261719-84.082031-27.578125-.664063-.121094-1.308594-.277344-1.949219-.449219-.171875-.046875-.34375-.09375-.511718-.144531-.152344-.042969-.308594-.082031-.460938-.128906 19.675781 18.785156 66.015625 50.898437 72.253906 102.328125 4.246094 35.003906-90.007812 73.921875-118.269531 114.925781h170.085937c4.21875 0 7.582032-3.523438 7.382813-7.738281l-5.847656-124.417969c-.003907-18.574219-8.480469-35.867188-22.59375-47.25zm0 0" fill="#ff94a6"/><path d="m297.796875 356.496094c-23.007813-16.636719-97.117187 4.738281-103.953125 47.820312-105.152344 1.21875-138.496094 107.683594-138.496094 107.683594h141.214844s49.257812-6.09375 75.746094-56.582031c13.933594-2.550781 27.203125-10.925781 36.132812-23.273438 9.269532-12.820312 11.773438-28.46875 8.191406-42.695312-2.84375-11.308594-8.648437-25.582031-18.835937-32.953125zm0 0" fill="#a393e5"/><path d="m100.054688 442.390625c-29.496094 28.039063-42.210938 62.320313-44.367188 68.59375-.011719.035156-.019531.066406-.03125.097656-.058594.164063-.105469.308594-.144531.429688-.011719.03125-.023438.0625-.03125.089843-.035157.105469-.0625.191407-.082031.25-.003907.015626-.015626.042969-.019532.058594-.015625.050782-.027344.089844-.027344.089844h141.210938s49.257812-6.09375 75.746094-56.582031c13.933594-2.546875 27.203125-10.925781 36.132812-23.273438-94.605468 31.800781-179 17.179688-208.386718 10.246094zm0 0" fill="#8a84c1"/><path d="m193.84375 404.316406c84.164062 10.816406 103.953125-47.820312 103.953125-47.820312-23.007813-16.636719-97.117187 4.738281-103.953125 47.820312zm0 0" fill="#ffe3c2"/><path d="m98.453125 113.363281-14.273437-.203125c-12.109376-.171875-22.058594 9.507813-22.230469 21.621094l-.148438 10.371094c-.171875 12.113281 9.496094 22.074218 21.605469 22.246094l14.273438.203124zm0 0" fill="#fed6a6"/><path d="m270.621094 115.816406 14.269531.203125c12.113281.171875 21.78125 10.132813 21.609375 22.246094l-.148438 10.371094c-.175781 12.113281-10.121093 21.792969-22.230468 21.621093l-14.273438-.203124zm0 0" fill="#fed6a6"/><path d="m181.550781 63.402344c-32.300781 29.101562-71.386719 36.480468-84.667969 38.210937-2.683593.351563-4.695312 2.625-4.722656 5.335938l-.757812 72.726562c-.875 61.285157 63.050781 91.0625 90.894531 92.054688 27.863281-.199219 92.609375-28.140625 93.484375-89.425781l1.3125-72.71875c.046875-2.710938-1.894531-5.042969-4.570312-5.46875-13.226563-2.105469-52.085938-10.597657-83.542969-40.609376-2.074219-1.976562-5.300781-2.023437-7.429688-.105468zm0 0" fill="#ffe3c2"/><path d="m272.523438 104.117188c-8.445313-1.34375-27.351563-5.308594-48.105469-15.804688l-1.160157 93.992188c-.644531 45.40625-36.351562 72.503906-66.144531 83.582031 9.554688 3.664062 18.429688 5.601562 25.183594 5.84375 27.863281-.199219 92.609375-28.140625 93.484375-89.425781l1.3125-72.71875c.046875-2.710938-1.894531-5.042969-4.570312-5.46875zm0 0" fill="#f7d6b5"/><path d="m190.808594 188.957031c-.246094 0-.496094-.011719-.75-.035156l-6.761719-.652344c-6.019531-.582031-10.445313-5.953125-9.867187-11.972656l1.976562-20.519531c.410156-4.246094 4.183594-7.351563 8.433594-6.949219 4.246094.40625 7.359375 4.183594 6.949218 8.429687l-1.546874 16.058594 2.300781.21875c4.246093.410156 7.359375 4.1875 6.949219 8.433594-.386719 3.996094-3.75 6.988281-7.683594 6.988281zm0 0" fill="#d08f61"/><path d="m183.597656 233.222656c-.25 0-.496094-.003906-.75-.007812-15.792968-.222656-30.003906-7.542969-37.089844-19.101563-2.226562-3.636719-1.085937-8.394531 2.550782-10.625 3.640625-2.230469 8.394531-1.089843 10.625 2.546875 4.277344 6.976563 13.75 11.578125 24.136718 11.726563 10.386719.125 19.988282-4.183594 24.460938-11.03125 2.332031-3.574219 7.121094-4.582031 10.691406-2.246094 3.574219 2.332031 4.578125 7.121094 2.246094 10.695313-7.292969 11.171874-21.371094 18.042968-36.871094 18.042968zm0 0" fill="#c35f58"/><path d="m231.085938 168.355469c-.039063 0-.074219 0-.113282 0-4.265625-.058594-7.675781-3.570313-7.617187-7.835938l.117187-8.144531c.058594-4.265625 3.601563-7.679688 7.835938-7.617188 4.265625.0625 7.675781 3.570313 7.613281 7.835938l-.113281 8.144531c-.058594 4.230469-3.507813 7.617188-7.722656 7.617188zm0 0" fill="#844535"/><path d="m146.308594 163.199219c-.039063 0-.074219 0-.113282-.003907-4.265624-.058593-7.675781-3.566406-7.613281-7.832031l.117188-8.4375c.0625-4.230469 3.507812-7.617187 7.722656-7.617187h.113281c4.265625.0625 7.675782 3.570312 7.617188 7.835937l-.121094 8.4375c-.0625 4.230469-3.507812 7.617188-7.722656 7.617188zm0 0" fill="#844535"/><g fill="#efc79c"><path d="m353.992188 345.070312c.523437.75 1.03125 1.515626 1.523437 2.289063-.492187-.773437-1-1.539063-1.523437-2.289063zm0 0"/><path d="m352.03125 342.421875c.601562.769531 1.195312 1.554687 1.761719 2.355469-.566407-.800782-1.15625-1.582032-1.761719-2.355469zm0 0"/><path d="m355.796875 347.804688c.511719.824218 1.003906 1.664062 1.476563 2.511718-.472657-.847656-.964844-1.6875-1.476563-2.511718zm0 0"/><path d="m349.742188 339.660156c.652343.738282 1.277343 1.492188 1.890624 2.261719-.613281-.769531-1.238281-1.523437-1.890624-2.261719zm0 0"/><path d="m342.355469 332.59375c.789062.636719 1.554687 1.296875 2.308593 1.96875-.753906-.671875-1.519531-1.332031-2.308593-1.96875zm0 0"/><path d="m347.617188 337.382812c.644531.660157 1.273437 1.328126 1.886718 2.015626-.613281-.683594-1.242187-1.355469-1.886718-2.015626zm0 0"/><path d="m357.566406 350.851562c.476563.878907.941406 1.765626 1.375 2.667969-.433594-.902343-.898437-1.789062-1.375-2.667969zm0 0"/><path d="m347.246094 337c-.691406-.691406-1.398438-1.363281-2.121094-2.023438.722656.660157 1.429688 1.332032 2.121094 2.023438zm0 0"/><path d="m358.945312 353.523438c.433594.902343.835938 1.816406 1.226563 2.738281-.390625-.921875-.792969-1.835938-1.226563-2.738281zm0 0"/><path d="m364.570312 373.132812c.109376.984376.191407 1.980469.253907 2.976563-.0625-.996094-.144531-1.992187-.253907-2.976563zm0 0"/><path d="m342.355469 332.59375c-3.257813-2.628906-6.8125-4.941406-10.636719-6.878906-.703125-.359375-1.414062-.703125-2.121094-1.054688 4.480469 2.273438 8.808594 4.746094 12.757813 7.933594zm0 0"/><path d="m364.945312 379.84375c0-1.039062-.035156-2.074219-.085937-3.105469.050781 1.03125.085937 2.066407.085937 3.105469zm0 0"/><path d="m368.371094 452.648438-3.425782-72.804688zm0 0"/><path d="m364.109375 369.820312c.152344.917969.28125 1.847657.394531 2.777344-.109375-.929687-.242187-1.859375-.394531-2.777344zm0 0"/><path d="m360.410156 356.828125c.367188.902344.71875 1.8125 1.042969 2.730469-.324219-.917969-.675781-1.828125-1.042969-2.730469zm0 0"/><path d="m363.464844 366.539062c.21875.96875.417968 1.945313.585937 2.925782-.167969-.980469-.367187-1.957032-.585937-2.925782zm0 0"/><path d="m361.625 360.058594c.300781.875.585938 1.75.84375 2.636718-.261719-.882812-.542969-1.761718-.84375-2.636718zm0 0"/><path d="m362.574219 363.039062c.273437.949219.519531 1.910157.746093 2.875-.226562-.964843-.472656-1.925781-.746093-2.875zm0 0"/><path d="m312.757812 399.582031c-.03125-.109375-.058593-.222656-.089843-.332031.03125.109375.058593.222656.089843.332031zm0 0"/><path d="m367.855469 510.507812c-.277344.207032-.566407.402344-.871094.570313.304687-.167969.59375-.363281.871094-.570313zm0 0"/><path d="m370.550781 506.539062c.085938-.320312.144531-.652343.1875-.984374-.042969.332031-.101562.664062-.1875.984374zm0 0"/><path d="m370.765625 505.296875c.03125-.339844.046875-.683594.03125-1.035156.015625.351562 0 .695312-.03125 1.035156zm0 0"/><path d="m366.871094 511.136719c-.289063.152343-.589844.285156-.902344.398437.3125-.113281.613281-.246094.902344-.398437zm0 0"/><path d="m369.589844 508.660156c.191406-.289062.355468-.589844.503906-.90625-.144531.316406-.3125.617188-.503906.90625zm0 0"/><path d="m368.878906 509.574219c.21875-.242188.417969-.496094.605469-.765625-.1875.269531-.386719.523437-.605469.765625zm0 0"/><path d="m370.183594 507.558594c.140625-.328125.269531-.664063.363281-1.015625-.09375.347656-.222656.6875-.363281 1.015625zm0 0"/><path d="m368.03125 510.367188c.269531-.214844.527344-.445313.765625-.699219-.234375.253906-.496094.484375-.765625.699219zm0 0"/><path d="m313.320312 401.945312c0-.007812 0-.015624-.003906-.023437.003906.007813.003906.015625.003906.023437zm0 0"/><path d="m314.5 409.941406c-.023438-.257812-.046875-.515625-.070312-.773437.023437.257812.046874.515625.070312.773437zm0 0"/><path d="m314.242188 407.429688c-.027344-.214844-.050782-.433594-.078126-.648438.027344.214844.050782.433594.078126.648438zm0 0"/><path d="m314.648438 412.378906c-.011719-.242187-.027344-.484375-.039063-.726562.011719.242187.027344.484375.039063.726562zm0 0"/><path d="m313.820312 404.523438c-.003906-.023438-.007812-.050782-.011718-.078126.003906.027344.007812.054688.011718.078126zm0 0"/><path d="m311.984375 396.867188c.03125.101562.0625.207031.09375.3125-.03125-.105469-.0625-.210938-.09375-.3125zm0 0"/><path d="m363.414062 512c.382813 0 .757813-.039062 1.125-.09375-.367187.054688-.742187.09375-1.125.09375zm0 0"/><path d="m364.761719 511.871094c.351562-.066406.695312-.152344 1.027343-.265625-.332031.113281-.675781.199219-1.027343.265625zm0 0"/></g><path d="m275.691406 452.648438h-35.558594c-32.824218 0-59.441406 26.554687-59.558593 59.351562h95.117187zm0 0" fill="#fed6a6"/><path d="m368.371094 452.648438-3.425782-72.804688c0-18.574219-8.476562-35.867188-22.589843-47.25-4.898438-3.953125-10.375-6.8125-16.007813-9.546875-26.953125-13.070313-55.246094-22.261719-84.082031-27.578125-.664063-.121094-1.308594-.277344-1.949219-.449219-.171875-.046875-.34375-.09375-.511718-.144531-.152344-.042969-.308594-.082031-.460938-.128906 13.789062 13.164062 40.644531 32.886718 57.636719 61.203125.273437.179687.554687.359375.816406.546875 10.1875 7.367187 15.992187 21.644531 18.835937 32.953125 2.507813 9.96875 2.011719 20.628906-1.6875 30.53125l.878907 18.722656c.355469 7.59375-5.703125 13.945313-13.308594 13.945313h-26.824219v59.351562h87.71875c3.429688 0 6.292969-2.328125 7.136719-5.460938.195313-.722656.285156-1.488281.246094-2.277343zm0 0" fill="#f4849c"/></svg>