<?xml version="1.0" encoding="iso-8859-1"?>
<!-- Generator: Adobe Illustrator 19.0.0, SVG Export Plug-In . SVG Version: 6.00 Build 0)  -->
<svg version="1.1" id="Layer_1" xmlns="http://www.w3.org/2000/svg" xmlns:xlink="http://www.w3.org/1999/xlink" x="0px" y="0px"
	 viewBox="0 0 511.999 511.999" style="enable-background:new 0 0 511.999 511.999;" xml:space="preserve">
<path style="fill:#F0F0F1;" d="M370.016,274.327c-0.716-15.853-12.117-24.013-16.176-26.426l-89.099-89.099
	c-2.413-4.06-10.572-15.46-26.426-16.176c-27.405-1.239-61.209,31.185-100.323,96.373c-13.177,21.962-39.247,40.14-64.457,57.719
	c-37.553,26.185-76.386,53.262-72.641,94.451c3.954,43.496,37.416,74.576,41.965,78.614c4.038,4.548,35.118,38.011,78.613,41.965
	c1.856,0.168,3.68,0.25,5.479,0.25c38.145,0,63.966-37.03,88.973-72.891c17.579-25.211,35.756-51.28,57.718-64.457
	C338.83,335.538,371.255,301.784,370.016,274.327z"/>
<path style="fill:#E1E0E4;" d="M137.992,239c-13.177,21.962-39.247,40.14-64.457,57.719C35.981,322.904-2.852,349.981,0.894,391.17
	c3.473,38.201,29.701,66.818,39.117,75.956c-10.682-14.019-22.714-34.915-24.989-59.933c-3.745-41.189,35.087-68.266,72.641-94.451
	c25.211-17.579,51.28-35.757,64.457-57.719c31.673-52.787,59.864-84.083,83.994-93.424l-15.469-15.47
	C196.812,156.094,169.082,187.185,137.992,239z"/>
<path style="fill:#FCDE76;" d="M271.866,248.79c0-2.126-0.844-4.164-2.347-5.666l-28.331-28.331c-3.13-3.129-8.203-3.129-11.333,0
	c-3.129,3.129-3.129,8.203,0,11.332l22.665,22.664l-33.997,33.997l-22.664-22.665c-3.129-3.129-8.202-3.13-11.333,0
	c-3.129,3.129-3.129,8.203,0,11.332l22.665,22.665l-33.997,33.997l-22.664-22.664c-3.13-3.129-8.203-3.129-11.333,0
	c-3.129,3.129-3.129,8.203,0,11.332l22.665,22.665l-33.997,33.997l-22.664-22.664c-3.13-3.129-8.203-3.129-11.333,0
	c-3.129,3.129-3.129,8.203,0,11.332l22.665,22.665l-33.997,33.997L58.69,394.931c-3.13-3.13-8.203-3.129-11.333,0
	c-3.129,3.129-3.129,8.203,0,11.332l29.512,29.511c3.088,3.087,8.245,3.087,11.333,0L269.52,254.455
	C271.023,252.953,271.866,250.914,271.866,248.79z"/>
<path style="fill:#F59F3F;" d="M439.612,73.029c-7.276-7.276-17.148-10.225-26.408-7.885c-9.624,2.432-16.996,10.02-20.223,20.818
	c-1.382,4.623-3.781,7.634-7.334,9.204c-6.589,2.913-16.608,0.865-23.129-2.268c-29.365-14.111-56.322-11.107-75.891,8.462
	c-7.789,7.788-8.014,21.165-8.014,22.664c0,2.126,0.844,4.164,2.347,5.666L382.95,231.684c1.503,1.502,3.541,2.347,5.666,2.347
	c1.499,0,14.878-0.225,22.665-8.013c19.569-19.569,22.574-46.521,8.462-75.891c-3.134-6.521-5.18-16.54-2.268-23.129
	c1.57-3.553,4.581-5.952,9.203-7.334c10.799-3.228,18.387-10.6,20.818-20.224C449.838,90.179,446.89,80.306,439.612,73.029z"/>
<path style="fill:#F58D2F;" d="M292.428,141.16c-1.502-1.502-2.347-3.541-2.347-5.666c0-1.499,0.225-14.877,8.014-22.664
	c19.569-19.57,46.525-22.574,75.891-8.462c6.521,3.133,16.54,5.181,23.129,2.268c3.553-1.571,5.952-4.582,7.334-9.204
	c3.228-10.799,10.599-18.386,20.223-20.818c6.725-1.699,13.768-0.596,19.91,2.915c-1.324-2.316-2.979-4.507-4.971-6.499
	c-7.276-7.276-17.148-10.225-26.408-7.885c-9.624,2.432-16.996,10.02-20.223,20.818c-1.382,4.623-3.781,7.634-7.334,9.204
	c-6.589,2.913-16.608,0.865-23.129-2.268c-29.365-14.111-56.322-11.107-75.891,8.462c-7.789,7.788-8.014,21.165-8.014,22.664
	c0,2.126,0.844,4.164,2.347,5.666L382.95,231.684l0,0L292.428,141.16z"/>
<path style="fill:#38C7C2;" d="M416.948,243.015L269.628,95.694c-3.13-3.129-8.203-3.129-11.333,0l-45.33,45.33
	c-3.129,3.129-3.129,8.203,0,11.332l147.321,147.321c3.088,3.087,8.245,3.087,11.333,0l45.33-45.33
	C420.078,251.219,420.078,246.144,416.948,243.015z"/>
<g>
	<path style="fill:#00B5B8;" d="M301.336,127.403l-31.708-31.708c-3.13-3.129-8.203-3.129-11.333,0l-45.33,45.33
		c-3.129,3.129-3.129,8.203,0,11.332l31.708,31.708L301.336,127.403z"/>
	
		<rect x="291.867" y="185.628" transform="matrix(-0.7071 0.7071 -0.7071 -0.7071 718.4374 131.7483)" style="fill:#00B5B8;" width="80.131" height="58.078"/>
</g>
<g>
	<path style="fill:#F0F0F1;" d="M505.654,42.561c8.525-9.94,7.356-25.359-2.598-33.898c-9.94-8.525-25.359-7.357-33.898,2.597
		c-6.669,7.776-9.627,29.966-10.588,39.146c-0.286,2.735,0.937,5.535,3.114,7.207c2.631,2.02,5.922,1.656,8.929,0.832
		C480.418,55.758,499.448,49.796,505.654,42.561z"/>
	<path style="fill:#F0F0F1;" d="M405.483,2.536c-11.855,5.927-16.677,20.396-10.75,32.252l0,0
		c4.582,9.162,23.888,20.494,31.976,24.94c4.838,2.659,11.022-0.45,11.794-5.897c1.295-9.139,3.815-31.383-0.767-40.546
		C431.809,1.431,417.341-3.393,405.483,2.536z"/>
	<path style="fill:#F0F0F1;" d="M503.975,102.351L503.975,102.351c-7.244-7.244-29.143-11.889-38.222-13.549
		c-5.42-0.986-10.318,3.9-9.324,9.324c1.66,9.079,6.305,30.978,13.548,38.222c9.254,9.253,24.744,9.251,33.997,0
		C513.241,127.081,513.241,111.619,503.975,102.351z"/>
</g>
<g>
</g>
<g>
</g>
<g>
</g>
<g>
</g>
<g>
</g>
<g>
</g>
<g>
</g>
<g>
</g>
<g>
</g>
<g>
</g>
<g>
</g>
<g>
</g>
<g>
</g>
<g>
</g>
<g>
</g>
</svg>
