<svg id="Layer_1" enable-background="new 0 0 512 512" height="512" viewBox="0 0 512 512" width="512" xmlns="http://www.w3.org/2000/svg"><path d="m10 200.977h492v110.047h-492z" fill="#c5d3de"/><path d="m341.154 200.977h56.769v110.047h-56.769z" fill="#ff5a58"/><path d="m79.35 301.055c-5.51 0-10 4.468-10 9.972 0 5.495 4.49 9.972 10 9.972 5.52 0 10-4.478 10-9.972 0-5.504-4.48-9.972-10-9.972z"/><path d="m509.07 193.923c-1.86-1.855-4.43-2.923-7.07-2.923h-492c-2.63 0-5.21 1.067-7.07 2.923-1.86 1.854-2.93 4.427-2.93 7.049v110.055c0 2.623 1.07 5.186 2.93 7.051 1.86 1.855 4.44 2.922 7.07 2.922h24.35c5.52 0 10-4.478 10-9.972 0-5.504-4.48-9.972-10-9.972h-14.35v-90.111h36.77v25.819c0 5.504 4.49 9.972 10 9.972s10-4.468 10-9.972v-25.819h36.77v44.607c0 5.495 4.48 9.972 10 9.972 5.51 0 10-4.478 10-9.972v-44.607h36.77v25.819c0 5.504 4.48 9.972 10 9.972 5.51 0 10-4.468 10-9.972v-25.819h36.77v44.607c0 5.495 4.48 9.972 10 9.972 5.51 0 10-4.478 10-9.972v-44.607h27.3v25.819c0 5.504 4.49 9.972 10 9.972 5.52 0 10-4.468 10-9.972v-25.819h36.774v90.111h-206.804c-5.51 0-10 4.468-10 9.972 0 5.495 4.49 9.972 10 9.972h377.65c2.63 0 5.21-1.067 7.07-2.922s2.93-4.428 2.93-7.051v-110.055c0-2.622-1.07-5.195-2.93-7.049zm-157.916 17.022h36.769v90.111h-36.769zm140.846 90.11h-84.077v-90.111h36.767v44.607c0 5.495 4.49 9.972 10 9.972 5.52 0 10-4.478 10-9.972v-44.607h27.31z"/></svg>