<svg id="Layer_1" height="512" viewBox="0 0 128 128" width="512" xmlns="http://www.w3.org/2000/svg" data-name="Layer 1"><path d="m93.86 111h-59.72a4.441 4.441 0 0 1 -3.8-6.74l21.8-35.92a25.417 25.417 0 0 0 3.69-13.21v-29.13h16.34v29.13a25.417 25.417 0 0 0 3.69 13.21l21.8 35.92a4.441 4.441 0 0 1 -3.8 6.74z" fill="#e5feff"/><path d="m35.133 106 16.688-27.5h24.358l16.688 27.5z" fill="#41acfc"/><path d="m53.689 17h20.622v9h-20.622z" fill="#fedd55"/><g fill="#9ffcfe"><path d="m64.38 31.88a1.752 1.752 0 0 1 -1.76 1.74h-6.79v-3.5h6.79a1.763 1.763 0 0 1 1.76 1.76z"/><path d="m64.38 38.38a1.752 1.752 0 0 1 -1.76 1.74h-6.79v-3.5h6.79a1.763 1.763 0 0 1 1.76 1.76z"/><path d="m64.38 44.88a1.752 1.752 0 0 1 -1.76 1.74h-6.79v-3.5h6.79a1.763 1.763 0 0 1 1.76 1.76z"/><path d="m64.38 51.38a1.752 1.752 0 0 1 -1.76 1.74h-6.79v-3.5h6.79a1.763 1.763 0 0 1 1.76 1.76z"/></g><circle cx="53.333" cy="97" fill="#e5feff" r="2.5"/><circle cx="72.833" cy="91" fill="#e5feff" r="4.333"/></svg>