<svg id="Icon_Set" enable-background="new 0 0 64 64" height="512" viewBox="0 0 64 64" width="512" xmlns="http://www.w3.org/2000/svg"><path d="m54 59h-48c-.552 0-1-.448-1-1v-52c0-.552.448-1 1-1h48c.552 0 1 .448 1 1v52c0 .552-.448 1-1 1z" fill="#c2c2c2"/><path d="m54 59.5h-48c-.827 0-1.5-.673-1.5-1.5v-52c0-.827.673-1.5 1.5-1.5h48c.827 0 1.5.673 1.5 1.5v52c0 .827-.673 1.5-1.5 1.5zm-48-54c-.276 0-.5.225-.5.5v52c0 .275.224.5.5.5h48c.276 0 .5-.225.5-.5v-52c0-.275-.224-.5-.5-.5z" fill="#212a41"/><path d="m58 59h-48c-.552 0-1-.448-1-1v-52c0-.552.448-1 1-1h48c.552 0 1 .448 1 1v52c0 .552-.448 1-1 1z" fill="#e0e0e0"/><path d="m58 59.5h-48c-.827 0-1.5-.673-1.5-1.5v-52c0-.827.673-1.5 1.5-1.5h48c.827 0 1.5.673 1.5 1.5v52c0 .827-.673 1.5-1.5 1.5zm-48-54c-.276 0-.5.225-.5.5v52c0 .275.224.5.5.5h48c.276 0 .5-.225.5-.5v-52c0-.275-.224-.5-.5-.5z" fill="#212a41"/><path d="m11 57.5c-.276 0-.5-.224-.5-.5v-50c0-.276.224-.5.5-.5s.5.224.5.5v50c0 .276-.224.5-.5.5z" fill="#fefefe"/><path d="m57 57.5c-.276 0-.5-.224-.5-.5v-50c0-.276.224-.5.5-.5s.5.224.5.5v50c0 .276-.224.5-.5.5z" fill="#c2c2c2"/><path d="m35.997 21h-15c-2.209 0-4 1.791-4 4v20h23v-20c0-2.209-1.791-4-4-4z" fill="#99a2b9"/><path d="m39.997 45.5h-23c-.276 0-.5-.224-.5-.5v-20c0-2.481 2.019-4.5 4.5-4.5h15c2.481 0 4.5 2.019 4.5 4.5v20c0 .276-.224.5-.5.5zm-22.5-1h22v-19.5c0-1.93-1.57-3.5-3.5-3.5h-15c-1.93 0-3.5 1.57-3.5 3.5z" fill="#212a41"/><path d="m38.997 21h-15c-2.209 0-4 1.791-4 4v20h23v-20c0-2.209-1.791-4-4-4z" fill="#b7c0d7"/><path d="m42.997 45.5h-23c-.276 0-.5-.224-.5-.5v-20c0-2.481 2.019-4.5 4.5-4.5h15c2.481 0 4.5 2.019 4.5 4.5v20c0 .276-.224.5-.5.5zm-22.5-1h22v-19.5c0-1.93-1.57-3.5-3.5-3.5h-15c-1.93 0-3.5 1.57-3.5 3.5z" fill="#212a41"/><path d="m16.997 45h24v4c0 1.105-.895 2-2 2h-20c-1.105 0-2-.895-2-2z" fill="#99a2b9"/><path d="m38.997 51.5h-20c-1.378 0-2.5-1.121-2.5-2.5v-4c0-.276.224-.5.5-.5h24c.276 0 .5.224.5.5v4c0 1.379-1.122 2.5-2.5 2.5zm-21.5-6v3.5c0 .827.673 1.5 1.5 1.5h20c.827 0 1.5-.673 1.5-1.5v-3.5z" fill="#212a41"/><path d="m41.997 39h-16c-1.105 0-2-.895-2-2v-7c0-3.314 2.686-6 6-6h8c3.314 0 6 2.686 6 6v7c0 1.105-.896 2-2 2z" fill="#d32e5e"/><path d="m41.997 39.5h-16c-1.378 0-2.5-1.121-2.5-2.5v-7c0-3.584 2.916-6.5 6.5-6.5h8c3.584 0 6.5 2.916 6.5 6.5v7c0 1.379-1.122 2.5-2.5 2.5zm-12-15c-3.033 0-5.5 2.468-5.5 5.5v7c0 .827.673 1.5 1.5 1.5h16c.827 0 1.5-.673 1.5-1.5v-7c0-3.032-2.467-5.5-5.5-5.5z" fill="#212a41"/><path d="m25.997 24v-9c0-2.209 1.791-4 4-4h1v13z" fill="#db8e11"/><path d="m30.997 24.5h-5c-.276 0-.5-.224-.5-.5v-9c0-2.481 2.019-4.5 4.5-4.5h1c.276 0 .5.224.5.5v13c0 .276-.224.5-.5.5zm-4.5-1h4v-12h-.5c-1.93 0-3.5 1.57-3.5 3.5z" fill="#212a41"/><path d="m34.997 24h-2c-2.209 0-4-1.791-4-4v-4c0-2.209 1.791-4 4-4h2c2.209 0 4 1.791 4 4v4c0 2.209-1.791 4-4 4z" fill="#e0c8a4"/><g fill="#212a41"><path d="m34.997 24.5h-2c-2.481 0-4.5-2.019-4.5-4.5v-4c0-2.481 2.019-4.5 4.5-4.5h2c2.481 0 4.5 2.019 4.5 4.5v4c0 2.481-2.018 4.5-4.5 4.5zm-2-12c-1.93 0-3.5 1.57-3.5 3.5v4c0 1.93 1.57 3.5 3.5 3.5h2c1.93 0 3.5-1.57 3.5-3.5v-4c0-1.93-1.57-3.5-3.5-3.5z"/><path d="m27.997 32.5c-.276 0-.5-.224-.5-.5v-2c0-.276.224-.5.5-.5s.5.224.5.5v2c0 .276-.224.5-.5.5z"/><path d="m30.997 27.5c-.064 0-.129-.013-.191-.038-.187-.077-.309-.26-.309-.462v-3c0-.276.224-.5.5-.5h3c.202 0 .385.122.462.309.078.187.035.402-.108.545l-3 3c-.096.095-.224.146-.354.146zm.5-3v1.293l1.293-1.293z"/><path d="m36.997 27.5c-.13 0-.258-.051-.354-.146l-3-3c-.143-.143-.186-.358-.108-.545.077-.187.26-.309.462-.309h3c.276 0 .5.224.5.5v3c0 .202-.122.385-.309.462-.062.025-.126.038-.191.038zm-1.793-3 1.293 1.293v-1.293z"/></g><path d="m30.997 11v6c0 1.657-1.343 3-3 3h-2v-5c0-2.209 1.791-4 4-4z" fill="#db8e11"/><path d="m27.997 20.5h-2c-.276 0-.5-.224-.5-.5v-5c0-2.481 2.019-4.5 4.5-4.5h1c.276 0 .5.224.5.5v6c0 1.93-1.57 3.5-3.5 3.5zm-1.5-1h1.5c1.378 0 2.5-1.121 2.5-2.5v-5.5h-.5c-1.93 0-3.5 1.57-3.5 3.5z" fill="#212a41"/><path d="m30.997 11v2c0 1.657 1.343 3 3 3h6v-1c0-2.209-1.791-4-4-4z" fill="#f9ac2f"/><path d="m39.997 16.5h-6c-1.93 0-3.5-1.57-3.5-3.5v-2c0-.276.224-.5.5-.5h5c2.481 0 4.5 2.019 4.5 4.5v1c0 .276-.224.5-.5.5zm-8.5-5v1.5c0 1.379 1.122 2.5 2.5 2.5h5.5v-.5c0-1.93-1.57-3.5-3.5-3.5z" fill="#212a41"/><path d="m41.997 39h-2v-7h4v5c0 1.105-.896 2-2 2z" fill="#e0c8a4"/><path d="m41.997 39.5h-2c-.276 0-.5-.224-.5-.5v-7c0-.276.224-.5.5-.5h4c.276 0 .5.224.5.5v5c0 1.379-1.122 2.5-2.5 2.5zm-1.5-1h1.5c.827 0 1.5-.673 1.5-1.5v-4.5h-3z" fill="#212a41"/><path d="m37.997 39h-4c-1.657 0-3-1.343-3-3 0-1.657 1.343-3 3-3h4c1.657 0 3 1.343 3 3 0 1.657-1.343 3-3 3z" fill="#b7c0d7"/><path d="m37.997 39.5h-4c-1.93 0-3.5-1.57-3.5-3.5s1.57-3.5 3.5-3.5h4c1.93 0 3.5 1.57 3.5 3.5s-1.57 3.5-3.5 3.5zm-4-6c-1.378 0-2.5 1.121-2.5 2.5s1.122 2.5 2.5 2.5h4c1.378 0 2.5-1.121 2.5-2.5s-1.122-2.5-2.5-2.5z" fill="#212a41"/><circle cx="41.004" cy="32" fill="#e0c8a4" r="3"/><path d="m41.003 35.5c-1.93 0-3.5-1.57-3.5-3.5s1.57-3.5 3.5-3.5 3.5 1.57 3.5 3.5-1.57 3.5-3.5 3.5zm0-6c-1.378 0-2.5 1.121-2.5 2.5s1.122 2.5 2.5 2.5 2.5-1.121 2.5-2.5-1.121-2.5-2.5-2.5z" fill="#212a41"/><path d="m33.997 35h-6v-3h-4v5c0 1.105.895 2 2 2h8c.552 0 1-.448 1-1v-2c0-.552-.448-1-1-1z" fill="#e0c8a4"/><path d="m33.997 39.5h-8c-1.378 0-2.5-1.121-2.5-2.5v-5c0-.276.224-.5.5-.5h4c.276 0 .5.224.5.5v2.5h5.5c.827 0 1.5.673 1.5 1.5v2c0 .827-.673 1.5-1.5 1.5zm-9.5-7v4.5c0 .827.673 1.5 1.5 1.5h8c.276 0 .5-.225.5-.5v-2c0-.275-.224-.5-.5-.5h-6c-.276 0-.5-.224-.5-.5v-2.5z" fill="#212a41"/><path d="m27.997 45h22c.552 0 1 .448 1 1v3c0 1.105-.895 2-2 2h-20c-1.105 0-2-.895-2-2v-3c0-.552.448-1 1-1z" fill="#b7c0d7"/><path d="m48.997 51.5h-20c-1.378 0-2.5-1.121-2.5-2.5v-3c0-.827.673-1.5 1.5-1.5h22c.827 0 1.5.673 1.5 1.5v3c0 1.379-1.122 2.5-2.5 2.5zm-21-6c-.276 0-.5.225-.5.5v3c0 .827.673 1.5 1.5 1.5h20c.827 0 1.5-.673 1.5-1.5v-3c0-.275-.224-.5-.5-.5z" fill="#212a41"/><path d="m48.997 55h-6v-10h-5c-2.209 0-4-1.791-4-4v-2h10c2.761 0 5 2.239 5 5z" fill="#0079a8"/><path d="m48.997 55.5h-6c-.276 0-.5-.224-.5-.5v-9.5h-4.5c-2.481 0-4.5-2.019-4.5-4.5v-2c0-.276.224-.5.5-.5h10c3.033 0 5.5 2.468 5.5 5.5v11c0 .276-.224.5-.5.5zm-5.5-1h5v-10.5c0-2.481-2.019-4.5-4.5-4.5h-9.5v1.5c0 1.93 1.57 3.5 3.5 3.5h5c.276 0 .5.224.5.5z" fill="#212a41"/><path d="m42.997 55h-6v-9c0-.552-.448-1-1-1h-4c-2.209 0-4-1.791-4-4v-2h10c2.761 0 5 2.239 5 5z" fill="#0079a8"/><path d="m42.997 55.5h-6c-.276 0-.5-.224-.5-.5v-9c0-.275-.224-.5-.5-.5h-4c-2.481 0-4.5-2.019-4.5-4.5v-2c0-.276.224-.5.5-.5h10c3.033 0 5.5 2.468 5.5 5.5v11c0 .276-.224.5-.5.5zm-5.5-1h5v-10.5c0-2.481-2.019-4.5-4.5-4.5h-9.5v1.5c0 1.93 1.57 3.5 3.5 3.5h4c.827 0 1.5.673 1.5 1.5z" fill="#212a41"/><path d="m50.997 59h-7c-.552 0-1-.448-1-1v-3h7c1.105 0 2 .895 2 2v1c0 .552-.448 1-1 1z" fill="#e0c8a4"/><path d="m50.997 59.5h-7c-.827 0-1.5-.673-1.5-1.5v-3c0-.276.224-.5.5-.5h7c1.378 0 2.5 1.121 2.5 2.5v1c0 .827-.673 1.5-1.5 1.5zm-7.5-4v2.5c0 .275.224.5.5.5h7c.276 0 .5-.225.5-.5v-1c0-.827-.673-1.5-1.5-1.5z" fill="#212a41"/><path d="m44.997 59h-7c-.552 0-1-.448-1-1v-3h7c1.105 0 2 .895 2 2v1c0 .552-.448 1-1 1z" fill="#e0c8a4"/><path d="m44.997 59.5h-7c-.827 0-1.5-.673-1.5-1.5v-3c0-.276.224-.5.5-.5h7c1.378 0 2.5 1.121 2.5 2.5v1c0 .827-.673 1.5-1.5 1.5zm-7.5-4v2.5c0 .275.224.5.5.5h7c.276 0 .5-.225.5-.5v-1c0-.827-.673-1.5-1.5-1.5z" fill="#212a41"/><path d="m18.997 51h3v8h-3z" fill="#6c696f"/><path d="m21.997 59.5h-3c-.276 0-.5-.224-.5-.5v-8c0-.276.224-.5.5-.5h3c.276 0 .5.224.5.5v8c0 .276-.224.5-.5.5zm-2.5-1h2v-7h-2z" fill="#212a41"/><path d="m28.997 51h3v8h-3z" fill="#6c696f"/><path d="m31.997 59.5h-3c-.276 0-.5-.224-.5-.5v-8c0-.276.224-.5.5-.5h3c.276 0 .5.224.5.5v8c0 .276-.224.5-.5.5zm-2.5-1h2v-7h-2z" fill="#212a41"/><path d="m21.997 43.5c-.276 0-.5-.224-.5-.5v-18c0-.276.224-.5.5-.5s.5.224.5.5v18c0 .276-.224.5-.5.5z" fill="#d5def5"/><path d="m28.997 49.5c-.276 0-.5-.224-.5-.5v-2c0-.276.224-.5.5-.5s.5.224.5.5v2c0 .276-.224.5-.5.5z" fill="#d5def5"/><path d="m18.997 49.5c-.276 0-.5-.224-.5-.5v-2c0-.276.224-.5.5-.5s.5.224.5.5v2c0 .276-.224.5-.5.5z" fill="#b7c0d7"/></svg>