<svg height="398pt" viewBox="-41 0 398 398.052" width="398pt" xmlns="http://www.w3.org/2000/svg"><path d="m247.054688 178.414062h-178.414063v21.226563c-.007813 11.394531 1.765625 22.71875 5.265625 33.5625 5.644531 17.785156 8.5 36.339844 8.460938 55.003906.050781 19.488281-3.066407 38.859375-9.238282 57.34375-2.960937 8.621094-4.476562 17.671875-4.488281 26.789063v11.9375c0 7.578125 6.144531 13.722656 13.726563 13.722656h150.964843c7.578125 0 13.722657-6.144531 13.722657-13.722656v-11.9375c-.011719-9.117188-1.527344-18.167969-4.484376-26.789063-12.046874-36.4375-12.320312-75.746093-.777343-112.347656 3.496093-10.84375 5.273437-22.167969 5.261719-33.5625zm0 0" fill="#f98c96"/><path d="m240.191406 150.964844h-164.6875v-13.722656c0-7.582032 6.144532-13.726563 13.722656-13.726563h137.242188c7.578125 0 13.722656 6.144531 13.722656 13.726563zm0 0" fill="#e9686a"/><path d="m137.261719 377.414062h-41.140625c-3.789063 0-6.863282-3.070312-6.863282-6.863281 0-.074219 0-.152343.003907-.226562.214843-6.171875 1.34375-12.277344 3.351562-18.121094 6.90625-20.628906 10.398438-42.242187 10.339844-63.996094.03125-20.8125-3.15625-41.5-9.460937-61.332031-2.140626-6.652344-3.492188-13.53125-4.011719-20.496094-.285157-3.78125 2.546875-7.074218 6.324219-7.359375 3.777343-.285156 7.074218 2.546875 7.359374 6.328125.441407 5.878906 1.578126 11.691406 3.390626 17.304688 6.738281 21.199218 10.152343 43.3125 10.121093 65.554687.058594 23.261719-3.683593 46.375-11.078125 68.429688-.785156 2.300781-1.40625 4.660156-1.847656 7.054687h33.511719c3.789062 0 6.863281 3.070313 6.863281 6.859375 0 3.789063-3.074219 6.863281-6.863281 6.863281zm0 0" fill="#fff"/><path d="m219.578125 377.414062h-54.867187c-3.789063 0-6.863282-3.074218-6.863282-6.863281 0-3.789062 3.074219-6.859375 6.863282-6.859375h54.867187c3.789063 0 6.859375 3.070313 6.859375 6.859375 0 3.789063-3.070312 6.863281-6.859375 6.863281zm0 0" fill="#fff"/><path d="m54.917969 150.964844h205.863281v27.449218h-205.863281zm0 0" fill="#ffd782"/><path d="m185.296875 82.34375v-54.894531c0-15.160157-12.289063-27.449219-27.449219-27.449219s-27.449218 12.289062-27.449218 27.449219v54.894531h-27.445313v41.175781h109.792969v-41.175781zm0 0" fill="#cfdfe8"/><path d="m68.640625 274.484375h-41.171875v-96.070313h27.449219v-27.449218h-54.8984378v150.964844h68.6210938c7.582031 0 13.726563-6.144532 13.726563-13.722657-.003907-7.578125-6.148438-13.722656-13.726563-13.722656zm0 0" fill="#e9686a"/><path d="m247.054688 274.484375h41.171874v-96.070313h-27.445312v-27.449218h54.894531v150.964844h-68.621093c-7.578126 0-13.722657-6.144532-13.722657-13.722657s6.144531-13.722656 13.722657-13.722656zm0 0" fill="#e9686a"/><g fill="#fff"><path d="m157.847656 336.242188h13.722656v13.722656h-13.722656zm0 0"/><path d="m157.847656 308.792969h27.449219v13.726562h-27.449219zm0 0"/><path d="m157.847656 281.34375h13.722656v13.726562h-13.722656zm0 0"/><path d="m157.847656 253.898438h27.449219v13.722656h-27.449219zm0 0"/><path d="m157.847656 226.449219h13.722656v13.722656h-13.722656zm0 0"/><path d="m157.847656 199h27.449219v13.722656h-27.449219zm0 0"/></g></svg>