<svg height="512" viewBox="0 0 512 512" width="512" xmlns="http://www.w3.org/2000/svg"><g id="Flat"><path d="m259.214 313.3-25.642-35.9a32 32 0 0 0 -26.04-13.4h-39.532v56h32l33.7 39.186a48 48 0 0 0 36.237 16.7l34.063.114v-56h-31.766a16 16 0 0 1 -13.02-6.7z" fill="#4aafdb"/><path d="m216 416h-144v-124a28 28 0 0 1 28-28h88a28 28 0 0 1 28 28z" fill="#4aafdb"/><path d="m120 248v20a28 28 0 0 0 56 0v-20z" fill="#fec093"/><path d="m216 448a40 40 0 0 1 -40 40h-64a40 40 0 0 1 -40-40v-32h144z" fill="#e0e0de"/><path d="m112 488v-8a32 32 0 0 1 32-32 32 32 0 0 1 32 32v8z" fill="#fec9a3"/><path d="m112 328v-36a28 28 0 0 0 -56 0v64a28 28 0 0 0 28 28h92v-56z" fill="#4db7e5"/><path d="m176 328 12.686-12.686a16 16 0 0 1 22.628 0 16 16 0 0 1 4.686 11.313v1.373l4.926 1.642a27.9 27.9 0 0 1 19.074 26.463 27.9 27.9 0 0 1 -27.895 27.895h-36.105z" fill="#fec9a3"/><path d="m112 417.237a24 24 0 0 1 -17.685 23.154l-38.315 10.45a25.334 25.334 0 0 1 -32-24.441v-64.28a40 40 0 0 1 29.475-38.591l38.315-10.449a16 16 0 0 1 20.21 15.436z" fill="#fec9a3"/><g fill="#feb784"><rect height="16" rx="8" transform="matrix(.962 -.275 .275 .962 -92.25 36.448)" width="58.241" x="54.88" y="339.568"/><rect height="16" rx="8" transform="matrix(.962 -.275 .275 .962 -101.041 37.679)" width="58.241" x="54.88" y="371.568"/><rect height="16" rx="8" transform="matrix(.962 -.275 .275 .962 -109.831 38.91)" width="58.241" x="54.88" y="403.568"/></g><path d="m331.351 376h-27.351v-56l20.821-6.94a20.646 20.646 0 0 1 6.53-1.06 20.649 20.649 0 0 1 20.649 20.649v22.7a20.649 20.649 0 0 1 -20.649 20.651z" fill="#fec093"/><path d="m208 196.48a68.011 68.011 0 0 1 -134.01 15.92l-8.04-32.83a67.332 67.332 0 0 1 47.9-81.11c.68-.19 1.36-.36 2.05-.53 36.47-8.83 73.23 13.41 82.11 49.67l8.04 32.83a67.165 67.165 0 0 1 1.95 16.05z" fill="#fec9a3"/><path d="m208 196.48a67.936 67.936 0 0 1 -61.89 67.24 86.487 86.487 0 0 0 16.2-66.93l-6.54-38.02a86.633 86.633 0 0 0 -41.92-60.31c.68-.19 1.36-.36 2.05-.53 36.47-8.83 73.23 13.41 82.11 49.67l8.04 32.83a67.165 67.165 0 0 1 1.95 16.05z" fill="#fec093"/><path d="m139.25 179.67a12 12 0 1 0 -11.68 14.85 12.164 12.164 0 0 0 2.86-.35 12.008 12.008 0 0 0 8.82-14.5z" fill="#7a432a"/><path d="m193.66 166.43a11.994 11.994 0 1 0 -11.68 14.84 12.164 12.164 0 0 0 2.86-.35 11.978 11.978 0 0 0 8.82-14.49z" fill="#7a432a"/><path d="m150.279 200.512-8.62 13.48a32.074 32.074 0 0 0 17.266 5.4c9.2 0 17.774-4.654 23.727-13.565l-13.3-8.889c-4.763 7.126-11.537 8.394-19.073 3.574z" fill="#f7a468"/><path d="m79.96 217.448a24.088 24.088 0 0 1 -15.776-5.941 23.251 23.251 0 0 1 -6.26-8.628 23.963 23.963 0 0 1 1.934-22.485 24.756 24.756 0 0 1 15.024-10.41 7.427 7.427 0 0 1 8.973 5.458l.2.828a7.721 7.721 0 0 1 -5.675 9.33 8.366 8.366 0 0 0 -4.932 3.252 8 8 0 0 0 2.844 11.675 8.375 8.375 0 0 0 5.874.619 7.72 7.72 0 0 1 9.329 5.675l.066.271a8 8 0 0 1 -5.879 9.665 24.2 24.2 0 0 1 -5.722.691z" fill="#fec093"/><path d="m488 384v104h-46.214z" fill="#7a432a"/><path d="m448 352v64l-48 72h-184a83.768 83.768 0 0 1 31.11-65.15l88.89-70.85z" fill="#f59898"/><path d="m448 352v64l-48 72h-150.62c58.06-29.57 111.26-73.47 153.94-136z" fill="#ed9191"/><path d="m448 352h-112l-4-39.98-3.15-31.52a8 8 0 0 0 -9.28-7.1l-13.59 2.27a32 32 0 0 1 -35.23-20.33l-4.27-11.38-6.15-16.41-4.33-11.55h-17.84a5.2 5.2 0 0 1 -5.12-6.07l7.13-41.47a103.685 103.685 0 0 1 -8.17-40.94c.01-2.46.11-4.89.3-7.31 4.01-53.65 49.24-96.21 103.71-96.21h.97a104 104 0 0 1 103.02 104c0 14.22-8 128-8 128z" fill="#fec9a3"/><path d="m232 120s32 24 114.006 30.8l5.274-5.467a23.654 23.654 0 0 1 33.75-.3 23.655 23.655 0 0 1 1.745 31.5l-18.775 23.467v86.5a65.5 65.5 0 0 0 65.5 65.5 53.874 53.874 0 0 1 46.195 26.155l8.305 13.845v-17.417a266.382 266.382 0 0 0 -3.8-44.844l-15.322-89.739-23.246-136.157a96 96 0 0 0 -94.632-79.843h-23a96 96 0 0 0 -96 96z" fill="#7a432a"/><path d="m328 488 83.4-118.155a42.157 42.157 0 0 1 34.444-17.845 42.156 42.156 0 0 1 42.156 42.156v9.479a42.155 42.155 0 0 1 -6.679 22.771l-39.535 61.594z" fill="#fec9a3"/><path d="m288 160a16 16 0 1 0 16 16 16.021 16.021 0 0 0 -16-16z" fill="#7a432a"/><path d="m297.65 228.22a42.645 42.645 0 0 1 -31.17 15.74l-6.15-16.41c.19.07.38.14.57.22.24.02.49.05.74.07l.71.07a26.533 26.533 0 0 0 22.91-9.82 8 8 0 0 1 12.39 10.13z" fill="#f7a468"/></g></svg>