<svg enable-background="new 0 0 140 140" height="512" viewBox="0 0 140 140" width="512" xmlns="http://www.w3.org/2000/svg"><circle cx="70" cy="69.996" fill="#f37735" r="64"/><path d="m23.3900146 79.4259109 1.9400024-11.300293-8.3099976-8.3100548 11.5299683-1.6699219 5.1500244-10.449707 11.3499756 11.3496094 5.3300171.7700195 2.3800049 2.3803711.4899903-2.830078-16.6300049-16.6298828 23.0599976-3.3500977 10.3200073-20.8999042 22.7000122 22.6997089 10.6799927 1.550293 16.6500244 16.6499023 2.9499512.4296875 11 10.9999962c-.4400025 34.9702148-28.9099732 63.1801834-63.9799805 63.1801834-.7999878 0-1.5900269-.0302734-2.3800049-.0600586v-7.689949h2.2399902v-.3500977z" opacity=".1"/><path d="m70 18.4850922 10.3157425 20.9019737 23.0666962 3.3517876-16.6912232 16.2699165 3.9402619 22.9734917-20.6314774-10.8466111-20.6314812 10.8466111 3.9402619-22.9734917-16.6912194-16.2699165 23.0667-3.3517876z" fill="#feed32"/><g fill="#ffcb08"><path d="m70 18.4850922v35.6262054l10.3157425-14.7242317z"/><path d="m70 54.1112976 33.3824387-11.3724441-16.6912232 16.2699165z"/><path d="m70 54.1112976 20.6314774 27.8709641-20.6314774-10.8466111z"/><path d="m70 54.1112976-20.6314812 27.8709641 3.9402619-22.9734917z"/><path d="m36.6175613 42.7388535 23.0667-3.3517876 10.3157387 14.7242317z"/><path d="m33.7012177 47.6990128 5.1537361 10.4426078 11.5240974 1.6745491-8.3389168 8.1284333 1.9685517 11.477539-10.3074684-5.4189605-10.3074685 5.4189605 1.9685517-11.477539-8.3389187-8.1284333 11.5241012-1.6745491z"/><path d="m106.2987823 47.6990128 5.1537323 10.4426078 11.5241013 1.6745491-8.338913 8.1284333 1.9685517 11.477539-10.3074723-5.4189605-10.3074722 5.4189605 1.9685517-11.477539-8.338913-8.1284333 11.5241012-1.6745491z"/></g><path d="m93.0212479 105.074501-1.916832 8.9805603c-.5348129 2.5098801-.8366394 5.0673981-.9054718 7.6302795l-.0476379 1.7474136h-19.5813294v-.0000076c0-.4521027-.1102219-.8973846-.3211288-1.2972794l-6.3030624-11.9511032c-1.4138184-2.6793594-1.731514-5.8034897-.8843079-8.7158051l.6089516-2.0968399.6830559-2.3457642s.259491-1.0855255.7201614-1.9273682c.6195221-1.1596603 1.6150055-1.8691864 2.8117065 1.2337418l.4712372-17.6062546c.0370712-1.3502808 1.1437683-2.4304428 2.4993134-2.4304428 1.3449478 0 2.4463425 1.0537262 2.4992752 2.3987045l.5930557 14.3390808s.3865662 3.3783493 3.918396 2.3775024c0 0 2.9176102-.5347519 5.141571 1.3820801 0 0 .9445419.883606 2.7242432.7411346.8121033-.0650101 1.616333.2098083 2.242569.7309265l.1931381.1607208c.7286377.6063309 1.5354996 1.1109009 2.3963699 1.5076981.0034637.0015945.0069199.0031891.0103836.0047836 1.9062271.9160465 2.8858414 3.0658954 2.4463425 5.1362384z" fill="#ffd25a"/><path d="m72.3411484 79.7717133-.0427933-1.0356216c-.0317993-.7759094-.6652451-1.3837662-1.4416733-1.3837662-.7878036 0-1.4217682.6171646-1.4427109 1.4047089l-.0272141 1.014679h2.9543916z" fill="#e6e7e8"/><path d="m69.859421 123.26841h21.026173v3.936104h-21.026173z" fill="#e6e7e8"/><path d="m93.1252518 126.2420578h-25.5059815v7.6996994c.791748.029541 1.5830078.0625 2.3807373.0625 2.2399902 0 4.4599609-.119873 6.6398926-.3398438 5.7579956-.5932617 11.2833862-1.9619141 16.4853516-3.9785156z" fill="#344e5c"/><path d="m65.8837814 97.7196426c-.3812332 1.1914062-1.3025742 1.9591675-2.0545044 1.7209167-.058239-.0159073-.1111755-.0424042-.1588478-.06884l.6830559-2.3457642s.259491-1.0855255.7201614-1.9273682c.0423355.0053024.0900116.0158386.1323776.0317383.7518998.2436219 1.0590211 1.4032212.6777573 2.5893174z" fill="#e6e7e8"/><path d="m67.8853531 96.3323288c.2081985 1.4624863.2560577 2.9249191.264595 4.3874054-.007431 1.4624252-.0551376 2.9249191-.264595 4.3873444-.2094574-1.4624252-.257164-2.9249191-.264595-4.3873444.0085296-1.4624863.0563964-2.9249191.264595-4.3874054z" fill="#d6b251"/></svg>