<?xml version="1.0"?>
<svg xmlns="http://www.w3.org/2000/svg" xmlns:xlink="http://www.w3.org/1999/xlink" version="1.1" id="Capa_1" x="0px" y="0px" width="512px" height="512px" viewBox="0 0 560.979 560.979" style="enable-background:new 0 0 560.979 560.979;" xml:space="preserve"><g><g>
	<path d="M373.795,91.455v172.339v172.34c0,12.539-16.436,17.558-23.201,7.004c-38.713-60.337-76.948-91.978-211.228-98.682   l42.391,137.802h-63.355L75.527,342.892C33.524,340.968,0,306.273,0,263.794C0,220.077,35.476,184.5,79.193,184.5   c184.144,0,227.432-31.525,271.395-100.056C357.359,73.897,373.795,78.916,373.795,91.455z M482.854,280.495   c0,33.027-11.111,63.362-27.832,86.312c0,0-6.697,9.173-17.816,9.173c-11.443,0-21.549-9.608-21.549-21.665   c0-7.119,4.264-12.906,4.264-12.906c7.957-11.635,19.611-29.505,19.611-60.914s-11.654-49.286-19.611-60.921   c0,0-4.264-5.787-4.264-12.906c0-12.057,10.105-21.665,21.549-21.665c11.119,0,17.816,9.173,17.816,9.173   C471.75,217.133,482.854,247.468,482.854,280.495z M466.771,155.471c0,0-9.777-6.991-9.777-17.945   c0-12.329,10.125-21.747,21.664-21.747c7.42,0,14.254,5.229,14.254,5.229c26.186,19.584,68.066,69.769,68.066,159.487   s-41.887,139.903-68.074,159.487c0,0-6.834,5.229-14.252,5.229c-11.533,0-21.666-9.418-21.666-21.746   c0-10.955,9.779-17.945,9.779-17.945c30.477-22.487,50.877-67.436,50.877-125.024S497.242,177.958,466.771,155.471z" data-original="#000000" class="active-path" data-old_color="#000000" fill="#DF2929"/>
</g></g> </svg>
