<?xml version="1.0"?>
<svg xmlns="http://www.w3.org/2000/svg" viewBox="0 0 512 512" width="512" height="512"><g id="Out_line" data-name="Out line"><path d="M366.9668,209.15723A63.99823,63.99823,0,0,0,310.88867,176H288V128h64A104.11791,104.11791,0,0,0,456,24a8.00008,8.00008,0,0,0-8-8H64a8.00008,8.00008,0,0,0-8,8A104.11791,104.11791,0,0,0,160,128h64v48H201.11133a63.99823,63.99823,0,0,0-56.07813,33.15723l-2.647,4.8125A570.15831,570.15831,0,0,0,72,488a8.00008,8.00008,0,0,0,8,8H432a8.00008,8.00008,0,0,0,8-8,570.15831,570.15831,0,0,0-70.38623-274.03027ZM72.36035,32h367.2793A88.11922,88.11922,0,0,1,352,112H160A88.11922,88.11922,0,0,1,72.36035,32ZM240,128h32v48H240ZM88.05859,480a554.21712,554.21712,0,0,1,68.34717-258.31934l2.647-4.8125A47.99926,47.99926,0,0,1,201.11133,192H310.88867a47.99926,47.99926,0,0,1,42.0586,24.86816l2.647,4.8125A554.21712,554.21712,0,0,1,423.94141,480Z"/><path d="M256,216A120,120,0,1,0,376,336,120.13623,120.13623,0,0,0,256,216Zm58.75415,205.76514L306.92822,408.21l-13.85644,8,7.84137,13.582A103.21058,103.21058,0,0,1,264,439.69531V424H248v15.69531a103.21058,103.21058,0,0,1-36.91315-9.90332l7.84137-13.582-13.85644-8-7.82593,13.55518a104.85016,104.85016,0,0,1-27.01129-27.01123l13.555-7.82618-8-13.85546-13.5813,7.8413A103.21051,103.21051,0,0,1,152.30475,344H168V328H152.30475a103.21051,103.21051,0,0,1,9.9035-36.91357l13.5813,7.8413,8-13.85546-13.555-7.82618a104.85016,104.85016,0,0,1,27.01129-27.01123L205.07178,263.79l13.85644-8-7.84137-13.582A103.21058,103.21058,0,0,1,248,232.30469V248h16V232.30469a103.21058,103.21058,0,0,1,36.91315,9.90332l-7.84137,13.582,13.85644,8,7.82593-13.55518a104.85016,104.85016,0,0,1,27.01129,27.01123l-13.555,7.82618,8,13.85546,13.5813-7.8413A103.21051,103.21051,0,0,1,359.69525,328H344v16h15.69525a103.21051,103.21051,0,0,1-9.9035,36.91357l-13.5813-7.8413-8,13.85546,13.555,7.82618A104.85016,104.85016,0,0,1,314.75415,421.76514Z"/><path d="M264,313.37622V272H248v41.37622a24,24,0,1,0,16,0ZM256,344a8,8,0,1,1,8-8A8.00917,8.00917,0,0,1,256,344Z"/></g></svg>
